<?xml version="1.0" encoding="utf-8" standalone="no"?>
<!DOCTYPE svg PUBLIC "-//W3C//DTD SVG 1.1//EN"
  "http://www.w3.org/Graphics/SVG/1.1/DTD/svg11.dtd">
<svg xmlns:xlink="http://www.w3.org/1999/xlink" width="216pt" height="432pt" viewBox="0 0 216 432" xmlns="http://www.w3.org/2000/svg" version="1.1">
 <metadata>
  <rdf:RDF xmlns:dc="http://purl.org/dc/elements/1.1/" xmlns:cc="http://creativecommons.org/ns#" xmlns:rdf="http://www.w3.org/1999/02/22-rdf-syntax-ns#">
   <cc:Work>
    <dc:type rdf:resource="http://purl.org/dc/dcmitype/StillImage"/>
    <dc:date>2026-05-27T14:07:59.499444</dc:date>
    <dc:format>image/svg+xml</dc:format>
    <dc:creator>
     <cc:Agent>
      <dc:title>Matplotlib v3.10.8, https://matplotlib.org/</dc:title>
     </cc:Agent>
    </dc:creator>
   </cc:Work>
  </rdf:RDF>
 </metadata>
 <defs>
  <style type="text/css">*{stroke-linejoin: round; stroke-linecap: butt}</style>
 </defs>
 <g id="figure_1">
  <g id="patch_1">
   <path d="M 0 432 
L 216 432 
L 216 0 
L 0 0 
z
" style="fill: #ffffff"/>
  </g>
  <g id="axes_1">
   <g id="patch_2">
    <path d="M 17.28 168.607845 
L 205.2 168.607845 
L 205.2 36.6 
L 17.28 36.6 
z
" style="fill: #ffffff"/>
   </g>
   <g id="line2d_1">
    <path d="M 44.74746 103.883538 
L 82.64345 104.085918 
L 120.602803 104.119512 
L 158.595121 100.062335 
L 178.417887 100.633003 
" clip-path="url(#paa83579767)" style="fill: none; stroke-dasharray: 5.92,2.56; stroke-dashoffset: 0; stroke: #008000; stroke-opacity: 0.5; stroke-width: 1.6"/>
   </g>
   <g id="line2d_2">
    <path d="M 40.971459 100.443941 
L 71.590772 97.999971 
L 102.287062 101.451393 
L 132.831721 102.955232 
L 163.451636 99.324225 
" clip-path="url(#paa83579767)" style="fill: none; stroke-dasharray: 5.92,2.56; stroke-dashoffset: 0; stroke: #ffa500; stroke-opacity: 0.5; stroke-width: 1.6"/>
   </g>
   <g id="line2d_3">
    <path d="M 49.061907 98.648885 
L 78.830174 96.87455 
L 108.672255 98.928704 
L 138.366719 101.119224 
L 168.134987 100.329949 
" clip-path="url(#paa83579767)" style="fill: none; stroke-dasharray: 5.92,2.56; stroke-dashoffset: 0; stroke: #a52a2a; stroke-opacity: 0.5; stroke-width: 1.6"/>
   </g>
   <g id="line2d_4">
    <path d="M 149.442109 42.600357 
L 196.658182 100.062335 
" clip-path="url(#paa83579767)" style="fill: none; stroke-dasharray: 5.92,2.56; stroke-dashoffset: 0; stroke: #ffd700; stroke-opacity: 0.5; stroke-width: 1.6"/>
   </g>
   <g id="line2d_5">
    <path d="M 48.606555 162.607489 
L 77.558555 103.815766 
L 106.548209 104.947016 
L 135.394259 105.109715 
L 164.312005 101.451393 
" clip-path="url(#paa83579767)" style="fill: none; stroke-dasharray: 5.92,2.56; stroke-dashoffset: 0; stroke: #0000ff; stroke-opacity: 0.5; stroke-width: 1.6"/>
   </g>
   <g id="matplotlib.axis_1">
    <g id="xtick_1">
     <g id="line2d_6">
      <path d="M 25.821818 168.607845 
L 25.821818 36.6 
" clip-path="url(#paa83579767)" style="fill: none; stroke-dasharray: 2.96,1.28; stroke-dashoffset: 0; stroke: #b0b0b0; stroke-opacity: 0.4; stroke-width: 0.8"/>
     </g>
     <g id="line2d_7">
      <defs>
       <path id="m73fd3e6d91" d="M 0 0 
L 0 3.5 
" style="stroke: #000000; stroke-width: 0.8"/>
      </defs>
      <g>
       <use xlink:href="#m73fd3e6d91" x="25.821818" y="168.607845" style="stroke: #000000; stroke-width: 0.8"/>
      </g>
     </g>
     <g id="text_1">
      <!-- 0 -->
      <g transform="translate(22.640568 183.206283) scale(0.1 -0.1)">
       <defs>
        <path id="DejaVuSans-30" d="M 2034 4250 
Q 1547 4250 1301 3770 
Q 1056 3291 1056 2328 
Q 1056 1369 1301 889 
Q 1547 409 2034 409 
Q 2525 409 2770 889 
Q 3016 1369 3016 2328 
Q 3016 3291 2770 3770 
Q 2525 4250 2034 4250 
z
M 2034 4750 
Q 2819 4750 3233 4129 
Q 3647 3509 3647 2328 
Q 3647 1150 3233 529 
Q 2819 -91 2034 -91 
Q 1250 -91 836 529 
Q 422 1150 422 2328 
Q 422 3509 836 4129 
Q 1250 4750 2034 4750 
z
" transform="scale(0.015625)"/>
       </defs>
       <use xlink:href="#DejaVuSans-30"/>
      </g>
     </g>
    </g>
    <g id="xtick_2">
     <g id="line2d_8">
      <path d="M 79.535985 168.607845 
L 79.535985 36.6 
" clip-path="url(#paa83579767)" style="fill: none; stroke-dasharray: 2.96,1.28; stroke-dashoffset: 0; stroke: #b0b0b0; stroke-opacity: 0.4; stroke-width: 0.8"/>
     </g>
     <g id="line2d_9">
      <g>
       <use xlink:href="#m73fd3e6d91" x="79.535985" y="168.607845" style="stroke: #000000; stroke-width: 0.8"/>
      </g>
     </g>
     <g id="text_2">
      <!-- 2 -->
      <g transform="translate(76.354735 183.206283) scale(0.1 -0.1)">
       <defs>
        <path id="DejaVuSans-32" d="M 1228 531 
L 3431 531 
L 3431 0 
L 469 0 
L 469 531 
Q 828 903 1448 1529 
Q 2069 2156 2228 2338 
Q 2531 2678 2651 2914 
Q 2772 3150 2772 3378 
Q 2772 3750 2511 3984 
Q 2250 4219 1831 4219 
Q 1534 4219 1204 4116 
Q 875 4013 500 3803 
L 500 4441 
Q 881 4594 1212 4672 
Q 1544 4750 1819 4750 
Q 2544 4750 2975 4387 
Q 3406 4025 3406 3419 
Q 3406 3131 3298 2873 
Q 3191 2616 2906 2266 
Q 2828 2175 2409 1742 
Q 1991 1309 1228 531 
z
" transform="scale(0.015625)"/>
       </defs>
       <use xlink:href="#DejaVuSans-32"/>
      </g>
     </g>
    </g>
    <g id="xtick_3">
     <g id="line2d_10">
      <path d="M 133.250153 168.607845 
L 133.250153 36.6 
" clip-path="url(#paa83579767)" style="fill: none; stroke-dasharray: 2.96,1.28; stroke-dashoffset: 0; stroke: #b0b0b0; stroke-opacity: 0.4; stroke-width: 0.8"/>
     </g>
     <g id="line2d_11">
      <g>
       <use xlink:href="#m73fd3e6d91" x="133.250153" y="168.607845" style="stroke: #000000; stroke-width: 0.8"/>
      </g>
     </g>
     <g id="text_3">
      <!-- 4 -->
      <g transform="translate(130.068903 183.206283) scale(0.1 -0.1)">
       <defs>
        <path id="DejaVuSans-34" d="M 2419 4116 
L 825 1625 
L 2419 1625 
L 2419 4116 
z
M 2253 4666 
L 3047 4666 
L 3047 1625 
L 3713 1625 
L 3713 1100 
L 3047 1100 
L 3047 0 
L 2419 0 
L 2419 1100 
L 313 1100 
L 313 1709 
L 2253 4666 
z
" transform="scale(0.015625)"/>
       </defs>
       <use xlink:href="#DejaVuSans-34"/>
      </g>
     </g>
    </g>
    <g id="xtick_4">
     <g id="line2d_12">
      <path d="M 186.96432 168.607845 
L 186.96432 36.6 
" clip-path="url(#paa83579767)" style="fill: none; stroke-dasharray: 2.96,1.28; stroke-dashoffset: 0; stroke: #b0b0b0; stroke-opacity: 0.4; stroke-width: 0.8"/>
     </g>
     <g id="line2d_13">
      <g>
       <use xlink:href="#m73fd3e6d91" x="186.96432" y="168.607845" style="stroke: #000000; stroke-width: 0.8"/>
      </g>
     </g>
     <g id="text_4">
      <!-- 6 -->
      <g transform="translate(183.78307 183.206283) scale(0.1 -0.1)">
       <defs>
        <path id="DejaVuSans-36" d="M 2113 2584 
Q 1688 2584 1439 2293 
Q 1191 2003 1191 1497 
Q 1191 994 1439 701 
Q 1688 409 2113 409 
Q 2538 409 2786 701 
Q 3034 994 3034 1497 
Q 3034 2003 2786 2293 
Q 2538 2584 2113 2584 
z
M 3366 4563 
L 3366 3988 
Q 3128 4100 2886 4159 
Q 2644 4219 2406 4219 
Q 1781 4219 1451 3797 
Q 1122 3375 1075 2522 
Q 1259 2794 1537 2939 
Q 1816 3084 2150 3084 
Q 2853 3084 3261 2657 
Q 3669 2231 3669 1497 
Q 3669 778 3244 343 
Q 2819 -91 2113 -91 
Q 1303 -91 875 529 
Q 447 1150 447 2328 
Q 447 3434 972 4092 
Q 1497 4750 2381 4750 
Q 2619 4750 2861 4703 
Q 3103 4656 3366 4563 
z
" transform="scale(0.015625)"/>
       </defs>
       <use xlink:href="#DejaVuSans-36"/>
      </g>
     </g>
    </g>
    <g id="text_5">
     <!-- FLOPs -->
     <g transform="translate(94.796719 197.644252) scale(0.11 -0.11)">
      <defs>
       <path id="DejaVuSans-46" d="M 628 4666 
L 3309 4666 
L 3309 4134 
L 1259 4134 
L 1259 2759 
L 3109 2759 
L 3109 2228 
L 1259 2228 
L 1259 0 
L 628 0 
L 628 4666 
z
" transform="scale(0.015625)"/>
       <path id="DejaVuSans-4c" d="M 628 4666 
L 1259 4666 
L 1259 531 
L 3531 531 
L 3531 0 
L 628 0 
L 628 4666 
z
" transform="scale(0.015625)"/>
       <path id="DejaVuSans-4f" d="M 2522 4238 
Q 1834 4238 1429 3725 
Q 1025 3213 1025 2328 
Q 1025 1447 1429 934 
Q 1834 422 2522 422 
Q 3209 422 3611 934 
Q 4013 1447 4013 2328 
Q 4013 3213 3611 3725 
Q 3209 4238 2522 4238 
z
M 2522 4750 
Q 3503 4750 4090 4092 
Q 4678 3434 4678 2328 
Q 4678 1225 4090 567 
Q 3503 -91 2522 -91 
Q 1538 -91 948 565 
Q 359 1222 359 2328 
Q 359 3434 948 4092 
Q 1538 4750 2522 4750 
z
" transform="scale(0.015625)"/>
       <path id="DejaVuSans-50" d="M 1259 4147 
L 1259 2394 
L 2053 2394 
Q 2494 2394 2734 2622 
Q 2975 2850 2975 3272 
Q 2975 3691 2734 3919 
Q 2494 4147 2053 4147 
L 1259 4147 
z
M 628 4666 
L 2053 4666 
Q 2838 4666 3239 4311 
Q 3641 3956 3641 3272 
Q 3641 2581 3239 2228 
Q 2838 1875 2053 1875 
L 1259 1875 
L 1259 0 
L 628 0 
L 628 4666 
z
" transform="scale(0.015625)"/>
       <path id="DejaVuSans-73" d="M 2834 3397 
L 2834 2853 
Q 2591 2978 2328 3040 
Q 2066 3103 1784 3103 
Q 1356 3103 1142 2972 
Q 928 2841 928 2578 
Q 928 2378 1081 2264 
Q 1234 2150 1697 2047 
L 1894 2003 
Q 2506 1872 2764 1633 
Q 3022 1394 3022 966 
Q 3022 478 2636 193 
Q 2250 -91 1575 -91 
Q 1294 -91 989 -36 
Q 684 19 347 128 
L 347 722 
Q 666 556 975 473 
Q 1284 391 1588 391 
Q 1994 391 2212 530 
Q 2431 669 2431 922 
Q 2431 1156 2273 1281 
Q 2116 1406 1581 1522 
L 1381 1569 
Q 847 1681 609 1914 
Q 372 2147 372 2553 
Q 372 3047 722 3315 
Q 1072 3584 1716 3584 
Q 2034 3584 2315 3537 
Q 2597 3491 2834 3397 
z
" transform="scale(0.015625)"/>
      </defs>
      <use xlink:href="#DejaVuSans-46"/>
      <use xlink:href="#DejaVuSans-4c" transform="translate(57.519531 0)"/>
      <use xlink:href="#DejaVuSans-4f" transform="translate(109.607422 0)"/>
      <use xlink:href="#DejaVuSans-50" transform="translate(188.318359 0)"/>
      <use xlink:href="#DejaVuSans-73" transform="translate(246.871094 0)"/>
     </g>
    </g>
    <g id="text_6">
     <!-- 1e12 -->
     <g transform="translate(179.959375 195.884408) scale(0.1 -0.1)">
      <defs>
       <path id="DejaVuSans-31" d="M 794 531 
L 1825 531 
L 1825 4091 
L 703 3866 
L 703 4441 
L 1819 4666 
L 2450 4666 
L 2450 531 
L 3481 531 
L 3481 0 
L 794 0 
L 794 531 
z
" transform="scale(0.015625)"/>
       <path id="DejaVuSans-65" d="M 3597 1894 
L 3597 1613 
L 953 1613 
Q 991 1019 1311 708 
Q 1631 397 2203 397 
Q 2534 397 2845 478 
Q 3156 559 3463 722 
L 3463 178 
Q 3153 47 2828 -22 
Q 2503 -91 2169 -91 
Q 1331 -91 842 396 
Q 353 884 353 1716 
Q 353 2575 817 3079 
Q 1281 3584 2069 3584 
Q 2775 3584 3186 3129 
Q 3597 2675 3597 1894 
z
M 3022 2063 
Q 3016 2534 2758 2815 
Q 2500 3097 2075 3097 
Q 1594 3097 1305 2825 
Q 1016 2553 972 2059 
L 3022 2063 
z
" transform="scale(0.015625)"/>
      </defs>
      <use xlink:href="#DejaVuSans-31"/>
      <use xlink:href="#DejaVuSans-65" transform="translate(63.623047 0)"/>
      <use xlink:href="#DejaVuSans-31" transform="translate(125.146484 0)"/>
      <use xlink:href="#DejaVuSans-32" transform="translate(188.769531 0)"/>
     </g>
    </g>
   </g>
   <g id="matplotlib.axis_2">
    <g id="ytick_1">
     <g id="line2d_14">
      <path d="M 17.28 162.607489 
L 205.2 162.607489 
" clip-path="url(#paa83579767)" style="fill: none; stroke-dasharray: 2.96,1.28; stroke-dashoffset: 0; stroke: #b0b0b0; stroke-opacity: 0.4; stroke-width: 0.8"/>
     </g>
     <g id="line2d_15">
      <defs>
       <path id="m05e95dad3c" d="M 0 0 
L -3.5 0 
" style="stroke: #000000; stroke-width: 0.8"/>
      </defs>
      <g>
       <use xlink:href="#m05e95dad3c" x="17.28" y="162.607489" style="stroke: #000000; stroke-width: 0.8"/>
      </g>
     </g>
     <g id="text_7">
      <!-- 0.0000 -->
      <g transform="translate(-24.710625 166.406707) scale(0.1 -0.1)">
       <defs>
        <path id="DejaVuSans-2e" d="M 684 794 
L 1344 794 
L 1344 0 
L 684 0 
L 684 794 
z
" transform="scale(0.015625)"/>
       </defs>
       <use xlink:href="#DejaVuSans-30"/>
       <use xlink:href="#DejaVuSans-2e" transform="translate(63.623047 0)"/>
       <use xlink:href="#DejaVuSans-30" transform="translate(95.410156 0)"/>
       <use xlink:href="#DejaVuSans-30" transform="translate(159.033203 0)"/>
       <use xlink:href="#DejaVuSans-30" transform="translate(222.65625 0)"/>
       <use xlink:href="#DejaVuSans-30" transform="translate(286.279297 0)"/>
      </g>
     </g>
    </g>
    <g id="ytick_2">
     <g id="line2d_16">
      <path d="M 17.28 137.135975 
L 205.2 137.135975 
" clip-path="url(#paa83579767)" style="fill: none; stroke-dasharray: 2.96,1.28; stroke-dashoffset: 0; stroke: #b0b0b0; stroke-opacity: 0.4; stroke-width: 0.8"/>
     </g>
     <g id="line2d_17">
      <g>
       <use xlink:href="#m05e95dad3c" x="17.28" y="137.135975" style="stroke: #000000; stroke-width: 0.8"/>
      </g>
     </g>
     <g id="text_8">
      <!-- 0.0005 -->
      <g transform="translate(-24.710625 140.935194) scale(0.1 -0.1)">
       <defs>
        <path id="DejaVuSans-35" d="M 691 4666 
L 3169 4666 
L 3169 4134 
L 1269 4134 
L 1269 2991 
Q 1406 3038 1543 3061 
Q 1681 3084 1819 3084 
Q 2600 3084 3056 2656 
Q 3513 2228 3513 1497 
Q 3513 744 3044 326 
Q 2575 -91 1722 -91 
Q 1428 -91 1123 -41 
Q 819 9 494 109 
L 494 744 
Q 775 591 1075 516 
Q 1375 441 1709 441 
Q 2250 441 2565 725 
Q 2881 1009 2881 1497 
Q 2881 1984 2565 2268 
Q 2250 2553 1709 2553 
Q 1456 2553 1204 2497 
Q 953 2441 691 2322 
L 691 4666 
z
" transform="scale(0.015625)"/>
       </defs>
       <use xlink:href="#DejaVuSans-30"/>
       <use xlink:href="#DejaVuSans-2e" transform="translate(63.623047 0)"/>
       <use xlink:href="#DejaVuSans-30" transform="translate(95.410156 0)"/>
       <use xlink:href="#DejaVuSans-30" transform="translate(159.033203 0)"/>
       <use xlink:href="#DejaVuSans-30" transform="translate(222.65625 0)"/>
       <use xlink:href="#DejaVuSans-35" transform="translate(286.279297 0)"/>
      </g>
     </g>
    </g>
    <g id="ytick_3">
     <g id="line2d_18">
      <path d="M 17.28 111.664461 
L 205.2 111.664461 
" clip-path="url(#paa83579767)" style="fill: none; stroke-dasharray: 2.96,1.28; stroke-dashoffset: 0; stroke: #b0b0b0; stroke-opacity: 0.4; stroke-width: 0.8"/>
     </g>
     <g id="line2d_19">
      <g>
       <use xlink:href="#m05e95dad3c" x="17.28" y="111.664461" style="stroke: #000000; stroke-width: 0.8"/>
      </g>
     </g>
     <g id="text_9">
      <!-- 0.0010 -->
      <g transform="translate(-24.710625 115.46368) scale(0.1 -0.1)">
       <use xlink:href="#DejaVuSans-30"/>
       <use xlink:href="#DejaVuSans-2e" transform="translate(63.623047 0)"/>
       <use xlink:href="#DejaVuSans-30" transform="translate(95.410156 0)"/>
       <use xlink:href="#DejaVuSans-30" transform="translate(159.033203 0)"/>
       <use xlink:href="#DejaVuSans-31" transform="translate(222.65625 0)"/>
       <use xlink:href="#DejaVuSans-30" transform="translate(286.279297 0)"/>
      </g>
     </g>
    </g>
    <g id="ytick_4">
     <g id="line2d_20">
      <path d="M 17.28 86.192947 
L 205.2 86.192947 
" clip-path="url(#paa83579767)" style="fill: none; stroke-dasharray: 2.96,1.28; stroke-dashoffset: 0; stroke: #b0b0b0; stroke-opacity: 0.4; stroke-width: 0.8"/>
     </g>
     <g id="line2d_21">
      <g>
       <use xlink:href="#m05e95dad3c" x="17.28" y="86.192947" style="stroke: #000000; stroke-width: 0.8"/>
      </g>
     </g>
     <g id="text_10">
      <!-- 0.0015 -->
      <g transform="translate(-24.710625 89.992166) scale(0.1 -0.1)">
       <use xlink:href="#DejaVuSans-30"/>
       <use xlink:href="#DejaVuSans-2e" transform="translate(63.623047 0)"/>
       <use xlink:href="#DejaVuSans-30" transform="translate(95.410156 0)"/>
       <use xlink:href="#DejaVuSans-30" transform="translate(159.033203 0)"/>
       <use xlink:href="#DejaVuSans-31" transform="translate(222.65625 0)"/>
       <use xlink:href="#DejaVuSans-35" transform="translate(286.279297 0)"/>
      </g>
     </g>
    </g>
    <g id="ytick_5">
     <g id="line2d_22">
      <path d="M 17.28 60.721434 
L 205.2 60.721434 
" clip-path="url(#paa83579767)" style="fill: none; stroke-dasharray: 2.96,1.28; stroke-dashoffset: 0; stroke: #b0b0b0; stroke-opacity: 0.4; stroke-width: 0.8"/>
     </g>
     <g id="line2d_23">
      <g>
       <use xlink:href="#m05e95dad3c" x="17.28" y="60.721434" style="stroke: #000000; stroke-width: 0.8"/>
      </g>
     </g>
     <g id="text_11">
      <!-- 0.0020 -->
      <g transform="translate(-24.710625 64.520652) scale(0.1 -0.1)">
       <use xlink:href="#DejaVuSans-30"/>
       <use xlink:href="#DejaVuSans-2e" transform="translate(63.623047 0)"/>
       <use xlink:href="#DejaVuSans-30" transform="translate(95.410156 0)"/>
       <use xlink:href="#DejaVuSans-30" transform="translate(159.033203 0)"/>
       <use xlink:href="#DejaVuSans-32" transform="translate(222.65625 0)"/>
       <use xlink:href="#DejaVuSans-30" transform="translate(286.279297 0)"/>
      </g>
     </g>
    </g>
    <g id="text_12">
     <!-- F1 Score -->
     <g transform="translate(-31.20625 128.582048) rotate(-90) scale(0.12 -0.12)">
      <defs>
       <path id="DejaVuSans-20" transform="scale(0.015625)"/>
       <path id="DejaVuSans-53" d="M 3425 4513 
L 3425 3897 
Q 3066 4069 2747 4153 
Q 2428 4238 2131 4238 
Q 1616 4238 1336 4038 
Q 1056 3838 1056 3469 
Q 1056 3159 1242 3001 
Q 1428 2844 1947 2747 
L 2328 2669 
Q 3034 2534 3370 2195 
Q 3706 1856 3706 1288 
Q 3706 609 3251 259 
Q 2797 -91 1919 -91 
Q 1588 -91 1214 -16 
Q 841 59 441 206 
L 441 856 
Q 825 641 1194 531 
Q 1563 422 1919 422 
Q 2459 422 2753 634 
Q 3047 847 3047 1241 
Q 3047 1584 2836 1778 
Q 2625 1972 2144 2069 
L 1759 2144 
Q 1053 2284 737 2584 
Q 422 2884 422 3419 
Q 422 4038 858 4394 
Q 1294 4750 2059 4750 
Q 2388 4750 2728 4690 
Q 3069 4631 3425 4513 
z
" transform="scale(0.015625)"/>
       <path id="DejaVuSans-63" d="M 3122 3366 
L 3122 2828 
Q 2878 2963 2633 3030 
Q 2388 3097 2138 3097 
Q 1578 3097 1268 2742 
Q 959 2388 959 1747 
Q 959 1106 1268 751 
Q 1578 397 2138 397 
Q 2388 397 2633 464 
Q 2878 531 3122 666 
L 3122 134 
Q 2881 22 2623 -34 
Q 2366 -91 2075 -91 
Q 1284 -91 818 406 
Q 353 903 353 1747 
Q 353 2603 823 3093 
Q 1294 3584 2113 3584 
Q 2378 3584 2631 3529 
Q 2884 3475 3122 3366 
z
" transform="scale(0.015625)"/>
       <path id="DejaVuSans-6f" d="M 1959 3097 
Q 1497 3097 1228 2736 
Q 959 2375 959 1747 
Q 959 1119 1226 758 
Q 1494 397 1959 397 
Q 2419 397 2687 759 
Q 2956 1122 2956 1747 
Q 2956 2369 2687 2733 
Q 2419 3097 1959 3097 
z
M 1959 3584 
Q 2709 3584 3137 3096 
Q 3566 2609 3566 1747 
Q 3566 888 3137 398 
Q 2709 -91 1959 -91 
Q 1206 -91 779 398 
Q 353 888 353 1747 
Q 353 2609 779 3096 
Q 1206 3584 1959 3584 
z
" transform="scale(0.015625)"/>
       <path id="DejaVuSans-72" d="M 2631 2963 
Q 2534 3019 2420 3045 
Q 2306 3072 2169 3072 
Q 1681 3072 1420 2755 
Q 1159 2438 1159 1844 
L 1159 0 
L 581 0 
L 581 3500 
L 1159 3500 
L 1159 2956 
Q 1341 3275 1631 3429 
Q 1922 3584 2338 3584 
Q 2397 3584 2469 3576 
Q 2541 3569 2628 3553 
L 2631 2963 
z
" transform="scale(0.015625)"/>
      </defs>
      <use xlink:href="#DejaVuSans-46"/>
      <use xlink:href="#DejaVuSans-31" transform="translate(57.519531 0)"/>
      <use xlink:href="#DejaVuSans-20" transform="translate(121.142578 0)"/>
      <use xlink:href="#DejaVuSans-53" transform="translate(152.929688 0)"/>
      <use xlink:href="#DejaVuSans-63" transform="translate(216.40625 0)"/>
      <use xlink:href="#DejaVuSans-6f" transform="translate(271.386719 0)"/>
      <use xlink:href="#DejaVuSans-72" transform="translate(332.568359 0)"/>
      <use xlink:href="#DejaVuSans-65" transform="translate(371.431641 0)"/>
     </g>
    </g>
   </g>
   <g id="PathCollection_1">
    <defs>
     <path id="m4ae2e46c9b" d="M 0 -4.472136 
L -4.472136 4.472136 
L 4.472136 4.472136 
z
" style="stroke: #008000; stroke-opacity: 0.7"/>
    </defs>
    <g clip-path="url(#paa83579767)">
     <use xlink:href="#m4ae2e46c9b" x="82.64345" y="104.085918" style="fill: #008000; fill-opacity: 0.7; stroke: #008000; stroke-opacity: 0.7"/>
    </g>
   </g>
   <g id="PathCollection_2">
    <defs>
     <path id="m1988446b2a" d="M 0 2.236068 
C 0.593012 2.236068 1.161816 2.000462 1.581139 1.581139 
C 2.000462 1.161816 2.236068 0.593012 2.236068 0 
C 2.236068 -0.593012 2.000462 -1.161816 1.581139 -1.581139 
C 1.161816 -2.000462 0.593012 -2.236068 0 -2.236068 
C -0.593012 -2.236068 -1.161816 -2.000462 -1.581139 -1.581139 
C -2.000462 -1.161816 -2.236068 -0.593012 -2.236068 0 
C -2.236068 0.593012 -2.000462 1.161816 -1.581139 1.581139 
C -1.161816 2.000462 -0.593012 2.236068 0 2.236068 
z
" style="stroke: #ffa500; stroke-opacity: 0.7"/>
    </defs>
    <g clip-path="url(#paa83579767)">
     <use xlink:href="#m1988446b2a" x="102.287062" y="101.451393" style="fill: #ffa500; fill-opacity: 0.7; stroke: #ffa500; stroke-opacity: 0.7"/>
    </g>
   </g>
   <g id="PathCollection_3">
    <defs>
     <path id="mf754c2b338" d="M -2.5 5 
L 0 2.5 
L 2.5 5 
L 5 2.5 
L 2.5 0 
L 5 -2.5 
L 2.5 -5 
L 0 -2.5 
L -2.5 -5 
L -5 -2.5 
L -2.5 0 
L -5 2.5 
z
" style="stroke: #808080; stroke-opacity: 0.7"/>
    </defs>
    <g clip-path="url(#paa83579767)">
     <use xlink:href="#mf754c2b338" x="25.823226" y="94.638139" style="fill: #808080; fill-opacity: 0.7; stroke: #808080; stroke-opacity: 0.7"/>
    </g>
   </g>
   <g id="PathCollection_4">
    <g clip-path="url(#paa83579767)">
     <use xlink:href="#m1988446b2a" x="163.451636" y="99.324225" style="fill: #ffa500; fill-opacity: 0.7; stroke: #ffa500; stroke-opacity: 0.7"/>
    </g>
   </g>
   <g id="PathCollection_5">
    <defs>
     <path id="mc31ceaf4d4" d="M -0 5 
L 5 -5 
L -5 -5 
z
" style="stroke: #a52a2a; stroke-opacity: 0.7"/>
    </defs>
    <g clip-path="url(#paa83579767)">
     <use xlink:href="#mc31ceaf4d4" x="49.061907" y="98.648885" style="fill: #a52a2a; fill-opacity: 0.7; stroke: #a52a2a; stroke-opacity: 0.7"/>
    </g>
   </g>
   <g id="PathCollection_6">
    <defs>
     <path id="mefdc5df274" d="M -1.490712 4.472136 
L 1.490712 4.472136 
L 1.490712 1.490712 
L 4.472136 1.490712 
L 4.472136 -1.490712 
L 1.490712 -1.490712 
L 1.490712 -4.472136 
L -1.490712 -4.472136 
L -1.490712 -1.490712 
L -4.472136 -1.490712 
L -4.472136 1.490712 
L -1.490712 1.490712 
z
" style="stroke: #ffd700; stroke-opacity: 0.7"/>
    </defs>
    <g clip-path="url(#paa83579767)">
     <use xlink:href="#mefdc5df274" x="149.442109" y="42.600357" style="fill: #ffd700; fill-opacity: 0.7; stroke: #ffd700; stroke-opacity: 0.7"/>
    </g>
   </g>
   <g id="PathCollection_7">
    <defs>
     <path id="m717c3fbf3c" d="M 0 4.472136 
C 1.186024 4.472136 2.323632 4.000923 3.162278 3.162278 
C 4.000923 2.323632 4.472136 1.186024 4.472136 0 
C 4.472136 -1.186024 4.000923 -2.323632 3.162278 -3.162278 
C 2.323632 -4.000923 1.186024 -4.472136 0 -4.472136 
C -1.186024 -4.472136 -2.323632 -4.000923 -3.162278 -3.162278 
C -4.000923 -2.323632 -4.472136 -1.186024 -4.472136 0 
C -4.472136 1.186024 -4.000923 2.323632 -3.162278 3.162278 
C -2.323632 4.000923 -1.186024 4.472136 0 4.472136 
z
" style="stroke: #0000ff; stroke-opacity: 0.7"/>
    </defs>
    <g clip-path="url(#paa83579767)">
     <use xlink:href="#m717c3fbf3c" x="48.606555" y="162.607489" style="fill: #0000ff; fill-opacity: 0.7; stroke: #0000ff; stroke-opacity: 0.7"/>
    </g>
   </g>
   <g id="PathCollection_8">
    <g clip-path="url(#paa83579767)">
     <use xlink:href="#m4ae2e46c9b" x="158.595121" y="100.062335" style="fill: #008000; fill-opacity: 0.7; stroke: #008000; stroke-opacity: 0.7"/>
    </g>
   </g>
   <g id="PathCollection_9">
    <g clip-path="url(#paa83579767)">
     <use xlink:href="#m717c3fbf3c" x="135.394259" y="105.109715" style="fill: #0000ff; fill-opacity: 0.7; stroke: #0000ff; stroke-opacity: 0.7"/>
    </g>
   </g>
   <g id="PathCollection_10">
    <g clip-path="url(#paa83579767)">
     <use xlink:href="#m717c3fbf3c" x="77.558555" y="103.815766" style="fill: #0000ff; fill-opacity: 0.7; stroke: #0000ff; stroke-opacity: 0.7"/>
    </g>
   </g>
   <g id="PathCollection_11">
    <g clip-path="url(#paa83579767)">
     <use xlink:href="#m717c3fbf3c" x="164.312005" y="101.451393" style="fill: #0000ff; fill-opacity: 0.7; stroke: #0000ff; stroke-opacity: 0.7"/>
    </g>
   </g>
   <g id="PathCollection_12">
    <defs>
     <path id="mdb0c068856" d="M -5 5 
L 5 5 
L 5 -5 
L -5 -5 
z
" style="stroke: #000000; stroke-opacity: 0.7"/>
    </defs>
    <g clip-path="url(#paa83579767)">
     <use xlink:href="#mdb0c068856" x="178.927175" y="101.044918" style="fill-opacity: 0.7; stroke: #000000; stroke-opacity: 0.7"/>
    </g>
   </g>
   <g id="PathCollection_13">
    <g clip-path="url(#paa83579767)">
     <use xlink:href="#m1988446b2a" x="40.971459" y="100.443941" style="fill: #ffa500; fill-opacity: 0.7; stroke: #ffa500; stroke-opacity: 0.7"/>
    </g>
   </g>
   <g id="PathCollection_14">
    <g clip-path="url(#paa83579767)">
     <use xlink:href="#mc31ceaf4d4" x="138.366719" y="101.119224" style="fill: #a52a2a; fill-opacity: 0.7; stroke: #a52a2a; stroke-opacity: 0.7"/>
    </g>
   </g>
   <g id="PathCollection_15">
    <g clip-path="url(#paa83579767)">
     <use xlink:href="#m4ae2e46c9b" x="44.74746" y="103.883538" style="fill: #008000; fill-opacity: 0.7; stroke: #008000; stroke-opacity: 0.7"/>
    </g>
   </g>
   <g id="PathCollection_16">
    <g clip-path="url(#paa83579767)">
     <use xlink:href="#m4ae2e46c9b" x="120.602803" y="104.119512" style="fill: #008000; fill-opacity: 0.7; stroke: #008000; stroke-opacity: 0.7"/>
    </g>
   </g>
   <g id="PathCollection_17">
    <g clip-path="url(#paa83579767)">
     <use xlink:href="#m4ae2e46c9b" x="178.417887" y="100.633003" style="fill: #008000; fill-opacity: 0.7; stroke: #008000; stroke-opacity: 0.7"/>
    </g>
   </g>
   <g id="PathCollection_18">
    <g clip-path="url(#paa83579767)">
     <use xlink:href="#mc31ceaf4d4" x="78.830174" y="96.87455" style="fill: #a52a2a; fill-opacity: 0.7; stroke: #a52a2a; stroke-opacity: 0.7"/>
    </g>
   </g>
   <g id="PathCollection_19">
    <g clip-path="url(#paa83579767)">
     <use xlink:href="#mc31ceaf4d4" x="168.134987" y="100.329949" style="fill: #a52a2a; fill-opacity: 0.7; stroke: #a52a2a; stroke-opacity: 0.7"/>
    </g>
   </g>
   <g id="PathCollection_20">
    <g clip-path="url(#paa83579767)">
     <use xlink:href="#mefdc5df274" x="196.658182" y="100.062335" style="fill: #ffd700; fill-opacity: 0.7; stroke: #ffd700; stroke-opacity: 0.7"/>
    </g>
   </g>
   <g id="PathCollection_21">
    <g clip-path="url(#paa83579767)">
     <use xlink:href="#m1988446b2a" x="71.590772" y="97.999971" style="fill: #ffa500; fill-opacity: 0.7; stroke: #ffa500; stroke-opacity: 0.7"/>
    </g>
   </g>
   <g id="PathCollection_22">
    <defs>
     <path id="m488c6b4ade" d="M -0 7.071068 
L 4.242641 0 
L 0 -7.071068 
L -4.242641 -0 
z
" style="stroke: #ff0000; stroke-opacity: 0.7"/>
    </defs>
    <g clip-path="url(#paa83579767)">
     <use xlink:href="#m488c6b4ade" x="25.821818" y="58.589056" style="fill: #ff0000; fill-opacity: 0.7; stroke: #ff0000; stroke-opacity: 0.7"/>
    </g>
   </g>
   <g id="PathCollection_23">
    <g clip-path="url(#paa83579767)">
     <use xlink:href="#m1988446b2a" x="132.831721" y="102.955232" style="fill: #ffa500; fill-opacity: 0.7; stroke: #ffa500; stroke-opacity: 0.7"/>
    </g>
   </g>
   <g id="PathCollection_24">
    <g clip-path="url(#paa83579767)">
     <use xlink:href="#m717c3fbf3c" x="106.548209" y="104.947016" style="fill: #0000ff; fill-opacity: 0.7; stroke: #0000ff; stroke-opacity: 0.7"/>
    </g>
   </g>
   <g id="PathCollection_25">
    <g clip-path="url(#paa83579767)">
     <use xlink:href="#mc31ceaf4d4" x="108.672255" y="98.928704" style="fill: #a52a2a; fill-opacity: 0.7; stroke: #a52a2a; stroke-opacity: 0.7"/>
    </g>
   </g>
   <g id="patch_3">
    <path d="M 17.28 168.607845 
L 17.28 36.6 
" style="fill: none; stroke: #000000; stroke-width: 0.8; stroke-linejoin: miter; stroke-linecap: square"/>
   </g>
   <g id="patch_4">
    <path d="M 205.2 168.607845 
L 205.2 36.6 
" style="fill: none; stroke: #000000; stroke-width: 0.8; stroke-linejoin: miter; stroke-linecap: square"/>
   </g>
   <g id="patch_5">
    <path d="M 17.28 168.607845 
L 205.2 168.607845 
" style="fill: none; stroke: #000000; stroke-width: 0.8; stroke-linejoin: miter; stroke-linecap: square"/>
   </g>
   <g id="patch_6">
    <path d="M 17.28 36.6 
L 205.2 36.6 
" style="fill: none; stroke: #000000; stroke-width: 0.8; stroke-linejoin: miter; stroke-linecap: square"/>
   </g>
   <g id="patch_7">
    <path d="M 45.670736 58.063849 
Q 41.492989 56.264458 37.315243 54.465067 
L 36.326301 56.76115 
Q 32.722077 52.486752 29.117853 48.212354 
Q 34.699961 47.894588 40.282069 47.576821 
L 39.293127 49.872903 
Q 43.470873 51.672294 47.64862 53.471684 
L 45.670736 58.063849 
z
" style="fill: #008000; opacity: 0.7"/>
   </g>
   <g id="text_13">
    <!-- Better -->
    <g style="fill: #008000; opacity: 0.7" transform="translate(51.1056 63.001569) scale(0.07 -0.07)">
     <defs>
      <path id="DejaVuSans-Bold-42" d="M 2456 2859 
Q 2741 2859 2887 2984 
Q 3034 3109 3034 3353 
Q 3034 3594 2887 3720 
Q 2741 3847 2456 3847 
L 1791 3847 
L 1791 2859 
L 2456 2859 
z
M 2497 819 
Q 2859 819 3042 972 
Q 3225 1125 3225 1434 
Q 3225 1738 3044 1889 
Q 2863 2041 2497 2041 
L 1791 2041 
L 1791 819 
L 2497 819 
z
M 3616 2497 
Q 4003 2384 4215 2081 
Q 4428 1778 4428 1338 
Q 4428 663 3972 331 
Q 3516 0 2584 0 
L 588 0 
L 588 4666 
L 2394 4666 
Q 3366 4666 3802 4372 
Q 4238 4078 4238 3431 
Q 4238 3091 4078 2852 
Q 3919 2613 3616 2497 
z
" transform="scale(0.015625)"/>
      <path id="DejaVuSans-Bold-65" d="M 4031 1759 
L 4031 1441 
L 1416 1441 
Q 1456 1047 1700 850 
Q 1944 653 2381 653 
Q 2734 653 3104 758 
Q 3475 863 3866 1075 
L 3866 213 
Q 3469 63 3072 -14 
Q 2675 -91 2278 -91 
Q 1328 -91 801 392 
Q 275 875 275 1747 
Q 275 2603 792 3093 
Q 1309 3584 2216 3584 
Q 3041 3584 3536 3087 
Q 4031 2591 4031 1759 
z
M 2881 2131 
Q 2881 2450 2695 2645 
Q 2509 2841 2209 2841 
Q 1884 2841 1681 2658 
Q 1478 2475 1428 2131 
L 2881 2131 
z
" transform="scale(0.015625)"/>
      <path id="DejaVuSans-Bold-74" d="M 1759 4494 
L 1759 3500 
L 2913 3500 
L 2913 2700 
L 1759 2700 
L 1759 1216 
Q 1759 972 1856 886 
Q 1953 800 2241 800 
L 2816 800 
L 2816 0 
L 1856 0 
Q 1194 0 917 276 
Q 641 553 641 1216 
L 641 2700 
L 84 2700 
L 84 3500 
L 641 3500 
L 641 4494 
L 1759 4494 
z
" transform="scale(0.015625)"/>
      <path id="DejaVuSans-Bold-72" d="M 3138 2547 
Q 2991 2616 2845 2648 
Q 2700 2681 2553 2681 
Q 2122 2681 1889 2404 
Q 1656 2128 1656 1613 
L 1656 0 
L 538 0 
L 538 3500 
L 1656 3500 
L 1656 2925 
Q 1872 3269 2151 3426 
Q 2431 3584 2822 3584 
Q 2878 3584 2943 3579 
Q 3009 3575 3134 3559 
L 3138 2547 
z
" transform="scale(0.015625)"/>
     </defs>
     <use xlink:href="#DejaVuSans-Bold-42"/>
     <use xlink:href="#DejaVuSans-Bold-65" transform="translate(76.220703 0)"/>
     <use xlink:href="#DejaVuSans-Bold-74" transform="translate(144.042969 0)"/>
     <use xlink:href="#DejaVuSans-Bold-74" transform="translate(191.845703 0)"/>
     <use xlink:href="#DejaVuSans-Bold-65" transform="translate(239.648438 0)"/>
     <use xlink:href="#DejaVuSans-Bold-72" transform="translate(307.470703 0)"/>
    </g>
   </g>
   <g id="text_14">
    <!-- biography -->
    <g transform="translate(75.93375 21.6) scale(0.14 -0.14)">
     <defs>
      <path id="DejaVuSans-62" d="M 3116 1747 
Q 3116 2381 2855 2742 
Q 2594 3103 2138 3103 
Q 1681 3103 1420 2742 
Q 1159 2381 1159 1747 
Q 1159 1113 1420 752 
Q 1681 391 2138 391 
Q 2594 391 2855 752 
Q 3116 1113 3116 1747 
z
M 1159 2969 
Q 1341 3281 1617 3432 
Q 1894 3584 2278 3584 
Q 2916 3584 3314 3078 
Q 3713 2572 3713 1747 
Q 3713 922 3314 415 
Q 2916 -91 2278 -91 
Q 1894 -91 1617 61 
Q 1341 213 1159 525 
L 1159 0 
L 581 0 
L 581 4863 
L 1159 4863 
L 1159 2969 
z
" transform="scale(0.015625)"/>
      <path id="DejaVuSans-69" d="M 603 3500 
L 1178 3500 
L 1178 0 
L 603 0 
L 603 3500 
z
M 603 4863 
L 1178 4863 
L 1178 4134 
L 603 4134 
L 603 4863 
z
" transform="scale(0.015625)"/>
      <path id="DejaVuSans-67" d="M 2906 1791 
Q 2906 2416 2648 2759 
Q 2391 3103 1925 3103 
Q 1463 3103 1205 2759 
Q 947 2416 947 1791 
Q 947 1169 1205 825 
Q 1463 481 1925 481 
Q 2391 481 2648 825 
Q 2906 1169 2906 1791 
z
M 3481 434 
Q 3481 -459 3084 -895 
Q 2688 -1331 1869 -1331 
Q 1566 -1331 1297 -1286 
Q 1028 -1241 775 -1147 
L 775 -588 
Q 1028 -725 1275 -790 
Q 1522 -856 1778 -856 
Q 2344 -856 2625 -561 
Q 2906 -266 2906 331 
L 2906 616 
Q 2728 306 2450 153 
Q 2172 0 1784 0 
Q 1141 0 747 490 
Q 353 981 353 1791 
Q 353 2603 747 3093 
Q 1141 3584 1784 3584 
Q 2172 3584 2450 3431 
Q 2728 3278 2906 2969 
L 2906 3500 
L 3481 3500 
L 3481 434 
z
" transform="scale(0.015625)"/>
      <path id="DejaVuSans-61" d="M 2194 1759 
Q 1497 1759 1228 1600 
Q 959 1441 959 1056 
Q 959 750 1161 570 
Q 1363 391 1709 391 
Q 2188 391 2477 730 
Q 2766 1069 2766 1631 
L 2766 1759 
L 2194 1759 
z
M 3341 1997 
L 3341 0 
L 2766 0 
L 2766 531 
Q 2569 213 2275 61 
Q 1981 -91 1556 -91 
Q 1019 -91 701 211 
Q 384 513 384 1019 
Q 384 1609 779 1909 
Q 1175 2209 1959 2209 
L 2766 2209 
L 2766 2266 
Q 2766 2663 2505 2880 
Q 2244 3097 1772 3097 
Q 1472 3097 1187 3025 
Q 903 2953 641 2809 
L 641 3341 
Q 956 3463 1253 3523 
Q 1550 3584 1831 3584 
Q 2591 3584 2966 3190 
Q 3341 2797 3341 1997 
z
" transform="scale(0.015625)"/>
      <path id="DejaVuSans-70" d="M 1159 525 
L 1159 -1331 
L 581 -1331 
L 581 3500 
L 1159 3500 
L 1159 2969 
Q 1341 3281 1617 3432 
Q 1894 3584 2278 3584 
Q 2916 3584 3314 3078 
Q 3713 2572 3713 1747 
Q 3713 922 3314 415 
Q 2916 -91 2278 -91 
Q 1894 -91 1617 61 
Q 1341 213 1159 525 
z
M 3116 1747 
Q 3116 2381 2855 2742 
Q 2594 3103 2138 3103 
Q 1681 3103 1420 2742 
Q 1159 2381 1159 1747 
Q 1159 1113 1420 752 
Q 1681 391 2138 391 
Q 2594 391 2855 752 
Q 3116 1113 3116 1747 
z
" transform="scale(0.015625)"/>
      <path id="DejaVuSans-68" d="M 3513 2113 
L 3513 0 
L 2938 0 
L 2938 2094 
Q 2938 2591 2744 2837 
Q 2550 3084 2163 3084 
Q 1697 3084 1428 2787 
Q 1159 2491 1159 1978 
L 1159 0 
L 581 0 
L 581 4863 
L 1159 4863 
L 1159 2956 
Q 1366 3272 1645 3428 
Q 1925 3584 2291 3584 
Q 2894 3584 3203 3211 
Q 3513 2838 3513 2113 
z
" transform="scale(0.015625)"/>
      <path id="DejaVuSans-79" d="M 2059 -325 
Q 1816 -950 1584 -1140 
Q 1353 -1331 966 -1331 
L 506 -1331 
L 506 -850 
L 844 -850 
Q 1081 -850 1212 -737 
Q 1344 -625 1503 -206 
L 1606 56 
L 191 3500 
L 800 3500 
L 1894 763 
L 2988 3500 
L 3597 3500 
L 2059 -325 
z
" transform="scale(0.015625)"/>
     </defs>
     <use xlink:href="#DejaVuSans-62"/>
     <use xlink:href="#DejaVuSans-69" transform="translate(63.476562 0)"/>
     <use xlink:href="#DejaVuSans-6f" transform="translate(91.259766 0)"/>
     <use xlink:href="#DejaVuSans-67" transform="translate(152.441406 0)"/>
     <use xlink:href="#DejaVuSans-72" transform="translate(215.917969 0)"/>
     <use xlink:href="#DejaVuSans-61" transform="translate(257.03125 0)"/>
     <use xlink:href="#DejaVuSans-70" transform="translate(318.310547 0)"/>
     <use xlink:href="#DejaVuSans-68" transform="translate(381.787109 0)"/>
     <use xlink:href="#DejaVuSans-79" transform="translate(445.166016 0)"/>
    </g>
   </g>
   <g id="PathCollection_26">
    <defs>
     <path id="ma4ae25d5bd" d="M 0 -9.354143 
L -2.100136 -2.890589 
L -8.896319 -2.890589 
L -3.398091 1.104107 
L -5.498228 7.567661 
L -0 3.572965 
L 5.498228 7.567661 
L 3.398091 1.104107 
L 8.896319 -2.890589 
L 2.100136 -2.890589 
z
" style="stroke: #800080; stroke-opacity: 0.7"/>
    </defs>
    <g clip-path="url(#paa83579767)">
     <use xlink:href="#ma4ae25d5bd" x="25.823503" y="90.1423" style="fill: #800080; fill-opacity: 0.7; stroke: #800080; stroke-opacity: 0.7"/>
    </g>
   </g>
  </g>
  <g id="axes_2">
   <g id="patch_8">
    <path d="M 17.28 336.96 
L 205.2 336.96 
L 205.2 204.952155 
L 17.28 204.952155 
z
" style="fill: #ffffff"/>
   </g>
   <g id="line2d_24">
    <path d="M 144.825327 263.209219 
L 160.473135 263.481465 
L 164.049158 263.442707 
L 172.355642 258.800659 
L 186.752014 259.459044 
" clip-path="url(#p3f25ebff10)" style="fill: none; stroke-dasharray: 5.92,2.56; stroke-dashoffset: 0; stroke: #008000; stroke-opacity: 0.5; stroke-width: 1.6"/>
   </g>
   <g id="line2d_25">
    <path d="M 140.92411 259.240921 
L 152.088926 256.421288 
L 156.74295 260.403229 
L 162.913928 262.138223 
L 183.140504 257.949093 
" clip-path="url(#p3f25ebff10)" style="fill: none; stroke-dasharray: 5.92,2.56; stroke-dashoffset: 0; stroke: #ffa500; stroke-opacity: 0.5; stroke-width: 1.6"/>
   </g>
   <g id="line2d_26">
    <path d="M 168.09405 255.122878 
L 183.055567 257.492777 
L 187.67205 260.020002 
L 187.912941 259.109408 
L 196.658182 257.169947 
" clip-path="url(#p3f25ebff10)" style="fill: none; stroke-dasharray: 5.92,2.56; stroke-dashoffset: 0; stroke: #a52a2a; stroke-opacity: 0.5; stroke-width: 1.6"/>
   </g>
   <g id="line2d_27">
    <path d="M 155.556674 330.959643 
L 167.097336 263.131031 
L 178.994243 264.436165 
L 180.452614 264.623873 
L 185.573823 260.403229 
" clip-path="url(#p3f25ebff10)" style="fill: none; stroke-dasharray: 5.92,2.56; stroke-dashoffset: 0; stroke: #0000ff; stroke-opacity: 0.5; stroke-width: 1.6"/>
   </g>
   <g id="matplotlib.axis_3">
    <g id="xtick_5">
     <g id="line2d_28">
      <path d="M 23.478308 336.96 
L 23.478308 204.952155 
" clip-path="url(#p3f25ebff10)" style="fill: none; stroke-dasharray: 2.96,1.28; stroke-dashoffset: 0; stroke: #b0b0b0; stroke-opacity: 0.4; stroke-width: 0.8"/>
     </g>
     <g id="line2d_29">
      <g>
       <use xlink:href="#m73fd3e6d91" x="23.478308" y="336.96" style="stroke: #000000; stroke-width: 0.8"/>
      </g>
     </g>
     <g id="text_15">
      <!-- 0.025 -->
      <g transform="translate(9.164246 351.558438) scale(0.1 -0.1)">
       <use xlink:href="#DejaVuSans-30"/>
       <use xlink:href="#DejaVuSans-2e" transform="translate(63.623047 0)"/>
       <use xlink:href="#DejaVuSans-30" transform="translate(95.410156 0)"/>
       <use xlink:href="#DejaVuSans-32" transform="translate(159.033203 0)"/>
       <use xlink:href="#DejaVuSans-35" transform="translate(222.65625 0)"/>
      </g>
     </g>
    </g>
    <g id="xtick_6">
     <g id="line2d_30">
      <path d="M 69.304267 336.96 
L 69.304267 204.952155 
" clip-path="url(#p3f25ebff10)" style="fill: none; stroke-dasharray: 2.96,1.28; stroke-dashoffset: 0; stroke: #b0b0b0; stroke-opacity: 0.4; stroke-width: 0.8"/>
     </g>
     <g id="line2d_31">
      <g>
       <use xlink:href="#m73fd3e6d91" x="69.304267" y="336.96" style="stroke: #000000; stroke-width: 0.8"/>
      </g>
     </g>
     <g id="text_16">
      <!-- 0.030 -->
      <g transform="translate(54.990205 351.558438) scale(0.1 -0.1)">
       <defs>
        <path id="DejaVuSans-33" d="M 2597 2516 
Q 3050 2419 3304 2112 
Q 3559 1806 3559 1356 
Q 3559 666 3084 287 
Q 2609 -91 1734 -91 
Q 1441 -91 1130 -33 
Q 819 25 488 141 
L 488 750 
Q 750 597 1062 519 
Q 1375 441 1716 441 
Q 2309 441 2620 675 
Q 2931 909 2931 1356 
Q 2931 1769 2642 2001 
Q 2353 2234 1838 2234 
L 1294 2234 
L 1294 2753 
L 1863 2753 
Q 2328 2753 2575 2939 
Q 2822 3125 2822 3475 
Q 2822 3834 2567 4026 
Q 2313 4219 1838 4219 
Q 1578 4219 1281 4162 
Q 984 4106 628 3988 
L 628 4550 
Q 988 4650 1302 4700 
Q 1616 4750 1894 4750 
Q 2613 4750 3031 4423 
Q 3450 4097 3450 3541 
Q 3450 3153 3228 2886 
Q 3006 2619 2597 2516 
z
" transform="scale(0.015625)"/>
       </defs>
       <use xlink:href="#DejaVuSans-30"/>
       <use xlink:href="#DejaVuSans-2e" transform="translate(63.623047 0)"/>
       <use xlink:href="#DejaVuSans-30" transform="translate(95.410156 0)"/>
       <use xlink:href="#DejaVuSans-33" transform="translate(159.033203 0)"/>
       <use xlink:href="#DejaVuSans-30" transform="translate(222.65625 0)"/>
      </g>
     </g>
    </g>
    <g id="xtick_7">
     <g id="line2d_32">
      <path d="M 115.130226 336.96 
L 115.130226 204.952155 
" clip-path="url(#p3f25ebff10)" style="fill: none; stroke-dasharray: 2.96,1.28; stroke-dashoffset: 0; stroke: #b0b0b0; stroke-opacity: 0.4; stroke-width: 0.8"/>
     </g>
     <g id="line2d_33">
      <g>
       <use xlink:href="#m73fd3e6d91" x="115.130226" y="336.96" style="stroke: #000000; stroke-width: 0.8"/>
      </g>
     </g>
     <g id="text_17">
      <!-- 0.035 -->
      <g transform="translate(100.816164 351.558438) scale(0.1 -0.1)">
       <use xlink:href="#DejaVuSans-30"/>
       <use xlink:href="#DejaVuSans-2e" transform="translate(63.623047 0)"/>
       <use xlink:href="#DejaVuSans-30" transform="translate(95.410156 0)"/>
       <use xlink:href="#DejaVuSans-33" transform="translate(159.033203 0)"/>
       <use xlink:href="#DejaVuSans-35" transform="translate(222.65625 0)"/>
      </g>
     </g>
    </g>
    <g id="xtick_8">
     <g id="line2d_34">
      <path d="M 160.956185 336.96 
L 160.956185 204.952155 
" clip-path="url(#p3f25ebff10)" style="fill: none; stroke-dasharray: 2.96,1.28; stroke-dashoffset: 0; stroke: #b0b0b0; stroke-opacity: 0.4; stroke-width: 0.8"/>
     </g>
     <g id="line2d_35">
      <g>
       <use xlink:href="#m73fd3e6d91" x="160.956185" y="336.96" style="stroke: #000000; stroke-width: 0.8"/>
      </g>
     </g>
     <g id="text_18">
      <!-- 0.040 -->
      <g transform="translate(146.642123 351.558438) scale(0.1 -0.1)">
       <use xlink:href="#DejaVuSans-30"/>
       <use xlink:href="#DejaVuSans-2e" transform="translate(63.623047 0)"/>
       <use xlink:href="#DejaVuSans-30" transform="translate(95.410156 0)"/>
       <use xlink:href="#DejaVuSans-34" transform="translate(159.033203 0)"/>
       <use xlink:href="#DejaVuSans-30" transform="translate(222.65625 0)"/>
      </g>
     </g>
    </g>
    <g id="text_19">
     <!-- TTFT -->
     <g transform="translate(98.19125 365.996406) scale(0.11 -0.11)">
      <defs>
       <path id="DejaVuSans-54" d="M -19 4666 
L 3928 4666 
L 3928 4134 
L 2272 4134 
L 2272 0 
L 1638 0 
L 1638 4134 
L -19 4134 
L -19 4666 
z
" transform="scale(0.015625)"/>
      </defs>
      <use xlink:href="#DejaVuSans-54"/>
      <use xlink:href="#DejaVuSans-54" transform="translate(59.333984 0)"/>
      <use xlink:href="#DejaVuSans-46" transform="translate(120.417969 0)"/>
      <use xlink:href="#DejaVuSans-54" transform="translate(176.1875 0)"/>
     </g>
    </g>
   </g>
   <g id="matplotlib.axis_4">
    <g id="ytick_6">
     <g id="line2d_36">
      <path d="M 17.28 330.959643 
L 205.2 330.959643 
" clip-path="url(#p3f25ebff10)" style="fill: none; stroke-dasharray: 2.96,1.28; stroke-dashoffset: 0; stroke: #b0b0b0; stroke-opacity: 0.4; stroke-width: 0.8"/>
     </g>
     <g id="line2d_37">
      <g>
       <use xlink:href="#m05e95dad3c" x="17.28" y="330.959643" style="stroke: #000000; stroke-width: 0.8"/>
      </g>
     </g>
     <g id="text_20">
      <!-- 0.0000 -->
      <g transform="translate(-24.710625 334.758862) scale(0.1 -0.1)">
       <use xlink:href="#DejaVuSans-30"/>
       <use xlink:href="#DejaVuSans-2e" transform="translate(63.623047 0)"/>
       <use xlink:href="#DejaVuSans-30" transform="translate(95.410156 0)"/>
       <use xlink:href="#DejaVuSans-30" transform="translate(159.033203 0)"/>
       <use xlink:href="#DejaVuSans-30" transform="translate(222.65625 0)"/>
       <use xlink:href="#DejaVuSans-30" transform="translate(286.279297 0)"/>
      </g>
     </g>
    </g>
    <g id="ytick_7">
     <g id="line2d_38">
      <path d="M 17.28 301.572897 
L 205.2 301.572897 
" clip-path="url(#p3f25ebff10)" style="fill: none; stroke-dasharray: 2.96,1.28; stroke-dashoffset: 0; stroke: #b0b0b0; stroke-opacity: 0.4; stroke-width: 0.8"/>
     </g>
     <g id="line2d_39">
      <g>
       <use xlink:href="#m05e95dad3c" x="17.28" y="301.572897" style="stroke: #000000; stroke-width: 0.8"/>
      </g>
     </g>
     <g id="text_21">
      <!-- 0.0005 -->
      <g transform="translate(-24.710625 305.372116) scale(0.1 -0.1)">
       <use xlink:href="#DejaVuSans-30"/>
       <use xlink:href="#DejaVuSans-2e" transform="translate(63.623047 0)"/>
       <use xlink:href="#DejaVuSans-30" transform="translate(95.410156 0)"/>
       <use xlink:href="#DejaVuSans-30" transform="translate(159.033203 0)"/>
       <use xlink:href="#DejaVuSans-30" transform="translate(222.65625 0)"/>
       <use xlink:href="#DejaVuSans-35" transform="translate(286.279297 0)"/>
      </g>
     </g>
    </g>
    <g id="ytick_8">
     <g id="line2d_40">
      <path d="M 17.28 272.18615 
L 205.2 272.18615 
" clip-path="url(#p3f25ebff10)" style="fill: none; stroke-dasharray: 2.96,1.28; stroke-dashoffset: 0; stroke: #b0b0b0; stroke-opacity: 0.4; stroke-width: 0.8"/>
     </g>
     <g id="line2d_41">
      <g>
       <use xlink:href="#m05e95dad3c" x="17.28" y="272.18615" style="stroke: #000000; stroke-width: 0.8"/>
      </g>
     </g>
     <g id="text_22">
      <!-- 0.0010 -->
      <g transform="translate(-24.710625 275.985369) scale(0.1 -0.1)">
       <use xlink:href="#DejaVuSans-30"/>
       <use xlink:href="#DejaVuSans-2e" transform="translate(63.623047 0)"/>
       <use xlink:href="#DejaVuSans-30" transform="translate(95.410156 0)"/>
       <use xlink:href="#DejaVuSans-30" transform="translate(159.033203 0)"/>
       <use xlink:href="#DejaVuSans-31" transform="translate(222.65625 0)"/>
       <use xlink:href="#DejaVuSans-30" transform="translate(286.279297 0)"/>
      </g>
     </g>
    </g>
    <g id="ytick_9">
     <g id="line2d_42">
      <path d="M 17.28 242.799404 
L 205.2 242.799404 
" clip-path="url(#p3f25ebff10)" style="fill: none; stroke-dasharray: 2.96,1.28; stroke-dashoffset: 0; stroke: #b0b0b0; stroke-opacity: 0.4; stroke-width: 0.8"/>
     </g>
     <g id="line2d_43">
      <g>
       <use xlink:href="#m05e95dad3c" x="17.28" y="242.799404" style="stroke: #000000; stroke-width: 0.8"/>
      </g>
     </g>
     <g id="text_23">
      <!-- 0.0015 -->
      <g transform="translate(-24.710625 246.598623) scale(0.1 -0.1)">
       <use xlink:href="#DejaVuSans-30"/>
       <use xlink:href="#DejaVuSans-2e" transform="translate(63.623047 0)"/>
       <use xlink:href="#DejaVuSans-30" transform="translate(95.410156 0)"/>
       <use xlink:href="#DejaVuSans-30" transform="translate(159.033203 0)"/>
       <use xlink:href="#DejaVuSans-31" transform="translate(222.65625 0)"/>
       <use xlink:href="#DejaVuSans-35" transform="translate(286.279297 0)"/>
      </g>
     </g>
    </g>
    <g id="ytick_10">
     <g id="line2d_44">
      <path d="M 17.28 213.412657 
L 205.2 213.412657 
" clip-path="url(#p3f25ebff10)" style="fill: none; stroke-dasharray: 2.96,1.28; stroke-dashoffset: 0; stroke: #b0b0b0; stroke-opacity: 0.4; stroke-width: 0.8"/>
     </g>
     <g id="line2d_45">
      <g>
       <use xlink:href="#m05e95dad3c" x="17.28" y="213.412657" style="stroke: #000000; stroke-width: 0.8"/>
      </g>
     </g>
     <g id="text_24">
      <!-- 0.0020 -->
      <g transform="translate(-24.710625 217.211876) scale(0.1 -0.1)">
       <use xlink:href="#DejaVuSans-30"/>
       <use xlink:href="#DejaVuSans-2e" transform="translate(63.623047 0)"/>
       <use xlink:href="#DejaVuSans-30" transform="translate(95.410156 0)"/>
       <use xlink:href="#DejaVuSans-30" transform="translate(159.033203 0)"/>
       <use xlink:href="#DejaVuSans-32" transform="translate(222.65625 0)"/>
       <use xlink:href="#DejaVuSans-30" transform="translate(286.279297 0)"/>
      </g>
     </g>
    </g>
    <g id="text_25">
     <!-- F1 Score -->
     <g transform="translate(-31.20625 296.934202) rotate(-90) scale(0.12 -0.12)">
      <use xlink:href="#DejaVuSans-46"/>
      <use xlink:href="#DejaVuSans-31" transform="translate(57.519531 0)"/>
      <use xlink:href="#DejaVuSans-20" transform="translate(121.142578 0)"/>
      <use xlink:href="#DejaVuSans-53" transform="translate(152.929688 0)"/>
      <use xlink:href="#DejaVuSans-63" transform="translate(216.40625 0)"/>
      <use xlink:href="#DejaVuSans-6f" transform="translate(271.386719 0)"/>
      <use xlink:href="#DejaVuSans-72" transform="translate(332.568359 0)"/>
      <use xlink:href="#DejaVuSans-65" transform="translate(371.431641 0)"/>
     </g>
    </g>
   </g>
   <g id="PathCollection_27">
    <g clip-path="url(#p3f25ebff10)">
     <use xlink:href="#m4ae2e46c9b" x="164.049158" y="263.442707" style="fill: #008000; fill-opacity: 0.7; stroke: #008000; stroke-opacity: 0.7"/>
    </g>
   </g>
   <g id="PathCollection_28">
    <g clip-path="url(#p3f25ebff10)">
     <use xlink:href="#m1988446b2a" x="156.74295" y="260.403229" style="fill: #ffa500; fill-opacity: 0.7; stroke: #ffa500; stroke-opacity: 0.7"/>
    </g>
   </g>
   <g id="PathCollection_29">
    <g clip-path="url(#p3f25ebff10)">
     <use xlink:href="#mf754c2b338" x="80.087118" y="252.542708" style="fill: #808080; fill-opacity: 0.7; stroke: #808080; stroke-opacity: 0.7"/>
    </g>
   </g>
   <g id="PathCollection_30">
    <g clip-path="url(#p3f25ebff10)">
     <use xlink:href="#m1988446b2a" x="183.140504" y="257.949093" style="fill: #ffa500; fill-opacity: 0.7; stroke: #ffa500; stroke-opacity: 0.7"/>
    </g>
   </g>
   <g id="PathCollection_31">
    <g clip-path="url(#p3f25ebff10)">
     <use xlink:href="#mc31ceaf4d4" x="196.658182" y="257.169947" style="fill: #a52a2a; fill-opacity: 0.7; stroke: #a52a2a; stroke-opacity: 0.7"/>
    </g>
   </g>
   <g id="PathCollection_32">
    <g clip-path="url(#p3f25ebff10)">
     <use xlink:href="#m717c3fbf3c" x="155.556674" y="330.959643" style="fill: #0000ff; fill-opacity: 0.7; stroke: #0000ff; stroke-opacity: 0.7"/>
    </g>
   </g>
   <g id="PathCollection_33">
    <g clip-path="url(#p3f25ebff10)">
     <use xlink:href="#m4ae2e46c9b" x="172.355642" y="258.800659" style="fill: #008000; fill-opacity: 0.7; stroke: #008000; stroke-opacity: 0.7"/>
    </g>
   </g>
   <g id="PathCollection_34">
    <g clip-path="url(#p3f25ebff10)">
     <use xlink:href="#m717c3fbf3c" x="180.452614" y="264.623873" style="fill: #0000ff; fill-opacity: 0.7; stroke: #0000ff; stroke-opacity: 0.7"/>
    </g>
   </g>
   <g id="PathCollection_35">
    <g clip-path="url(#p3f25ebff10)">
     <use xlink:href="#m717c3fbf3c" x="167.097336" y="263.131031" style="fill: #0000ff; fill-opacity: 0.7; stroke: #0000ff; stroke-opacity: 0.7"/>
    </g>
   </g>
   <g id="PathCollection_36">
    <g clip-path="url(#p3f25ebff10)">
     <use xlink:href="#m717c3fbf3c" x="185.573823" y="260.403229" style="fill: #0000ff; fill-opacity: 0.7; stroke: #0000ff; stroke-opacity: 0.7"/>
    </g>
   </g>
   <g id="PathCollection_37">
    <g clip-path="url(#p3f25ebff10)">
     <use xlink:href="#mdb0c068856" x="35.460458" y="259.934274" style="fill-opacity: 0.7; stroke: #000000; stroke-opacity: 0.7"/>
    </g>
   </g>
   <g id="PathCollection_38">
    <g clip-path="url(#p3f25ebff10)">
     <use xlink:href="#m1988446b2a" x="140.92411" y="259.240921" style="fill: #ffa500; fill-opacity: 0.7; stroke: #ffa500; stroke-opacity: 0.7"/>
    </g>
   </g>
   <g id="PathCollection_39">
    <g clip-path="url(#p3f25ebff10)">
     <use xlink:href="#mc31ceaf4d4" x="187.67205" y="260.020002" style="fill: #a52a2a; fill-opacity: 0.7; stroke: #a52a2a; stroke-opacity: 0.7"/>
    </g>
   </g>
   <g id="PathCollection_40">
    <g clip-path="url(#p3f25ebff10)">
     <use xlink:href="#m4ae2e46c9b" x="144.825327" y="263.209219" style="fill: #008000; fill-opacity: 0.7; stroke: #008000; stroke-opacity: 0.7"/>
    </g>
   </g>
   <g id="PathCollection_41">
    <g clip-path="url(#p3f25ebff10)">
     <use xlink:href="#m4ae2e46c9b" x="160.473135" y="263.481465" style="fill: #008000; fill-opacity: 0.7; stroke: #008000; stroke-opacity: 0.7"/>
    </g>
   </g>
   <g id="PathCollection_42">
    <g clip-path="url(#p3f25ebff10)">
     <use xlink:href="#m4ae2e46c9b" x="186.752014" y="259.459044" style="fill: #008000; fill-opacity: 0.7; stroke: #008000; stroke-opacity: 0.7"/>
    </g>
   </g>
   <g id="PathCollection_43">
    <g clip-path="url(#p3f25ebff10)">
     <use xlink:href="#mc31ceaf4d4" x="168.09405" y="255.122878" style="fill: #a52a2a; fill-opacity: 0.7; stroke: #a52a2a; stroke-opacity: 0.7"/>
    </g>
   </g>
   <g id="PathCollection_44">
    <g clip-path="url(#p3f25ebff10)">
     <use xlink:href="#mc31ceaf4d4" x="187.912941" y="259.109408" style="fill: #a52a2a; fill-opacity: 0.7; stroke: #a52a2a; stroke-opacity: 0.7"/>
    </g>
   </g>
   <g id="PathCollection_45">
    <g clip-path="url(#p3f25ebff10)">
     <use xlink:href="#m1988446b2a" x="152.088926" y="256.421288" style="fill: #ffa500; fill-opacity: 0.7; stroke: #ffa500; stroke-opacity: 0.7"/>
    </g>
   </g>
   <g id="PathCollection_46">
    <g clip-path="url(#p3f25ebff10)">
     <use xlink:href="#m488c6b4ade" x="25.821818" y="210.952511" style="fill: #ff0000; fill-opacity: 0.7; stroke: #ff0000; stroke-opacity: 0.7"/>
    </g>
   </g>
   <g id="PathCollection_47">
    <g clip-path="url(#p3f25ebff10)">
     <use xlink:href="#m1988446b2a" x="162.913928" y="262.138223" style="fill: #ffa500; fill-opacity: 0.7; stroke: #ffa500; stroke-opacity: 0.7"/>
    </g>
   </g>
   <g id="PathCollection_48">
    <g clip-path="url(#p3f25ebff10)">
     <use xlink:href="#m717c3fbf3c" x="178.994243" y="264.436165" style="fill: #0000ff; fill-opacity: 0.7; stroke: #0000ff; stroke-opacity: 0.7"/>
    </g>
   </g>
   <g id="PathCollection_49">
    <g clip-path="url(#p3f25ebff10)">
     <use xlink:href="#mc31ceaf4d4" x="183.055567" y="257.492777" style="fill: #a52a2a; fill-opacity: 0.7; stroke: #a52a2a; stroke-opacity: 0.7"/>
    </g>
   </g>
   <g id="patch_9">
    <path d="M 17.28 336.96 
L 17.28 204.952155 
" style="fill: none; stroke: #000000; stroke-width: 0.8; stroke-linejoin: miter; stroke-linecap: square"/>
   </g>
   <g id="patch_10">
    <path d="M 205.2 336.96 
L 205.2 204.952155 
" style="fill: none; stroke: #000000; stroke-width: 0.8; stroke-linejoin: miter; stroke-linecap: square"/>
   </g>
   <g id="patch_11">
    <path d="M 17.28 336.96 
L 205.2 336.96 
" style="fill: none; stroke: #000000; stroke-width: 0.8; stroke-linejoin: miter; stroke-linecap: square"/>
   </g>
   <g id="patch_12">
    <path d="M 17.28 204.952155 
L 205.2 204.952155 
" style="fill: none; stroke: #000000; stroke-width: 0.8; stroke-linejoin: miter; stroke-linecap: square"/>
   </g>
   <g id="patch_13">
    <path d="M 45.670736 226.416004 
Q 41.492989 224.616613 37.315243 222.817222 
L 36.326301 225.113304 
Q 32.722077 220.838907 29.117853 216.564509 
Q 34.699961 216.246742 40.282069 215.928975 
L 39.293127 218.225058 
Q 43.470873 220.024448 47.64862 221.823839 
L 45.670736 226.416004 
z
" style="fill: #008000; opacity: 0.7"/>
   </g>
   <g id="text_26">
    <!-- Better -->
    <g style="fill: #008000; opacity: 0.7" transform="translate(51.1056 231.353724) scale(0.07 -0.07)">
     <use xlink:href="#DejaVuSans-Bold-42"/>
     <use xlink:href="#DejaVuSans-Bold-65" transform="translate(76.220703 0)"/>
     <use xlink:href="#DejaVuSans-Bold-74" transform="translate(144.042969 0)"/>
     <use xlink:href="#DejaVuSans-Bold-74" transform="translate(191.845703 0)"/>
     <use xlink:href="#DejaVuSans-Bold-65" transform="translate(239.648438 0)"/>
     <use xlink:href="#DejaVuSans-Bold-72" transform="translate(307.470703 0)"/>
    </g>
   </g>
   <g id="PathCollection_50">
    <g clip-path="url(#p3f25ebff10)">
     <use xlink:href="#ma4ae25d5bd" x="82.869057" y="247.355813" style="fill: #800080; fill-opacity: 0.7; stroke: #800080; stroke-opacity: 0.7"/>
    </g>
   </g>
  </g>
  <g id="legend_1">
   <g id="patch_14">
    <path d="M -172.485156 418.36 
L 388.485156 418.36 
Q 390.485156 418.36 390.485156 416.36 
L 390.485156 388.00375 
Q 390.485156 386.00375 388.485156 386.00375 
L -172.485156 386.00375 
Q -174.485156 386.00375 -174.485156 388.00375 
L -174.485156 416.36 
Q -174.485156 418.36 -172.485156 418.36 
z
" style="fill: #ffffff; opacity: 0.8; stroke: #000000; stroke-linejoin: miter"/>
   </g>
   <g id="PathCollection_51">
    <g/>
   </g>
   <g id="text_27">
    <!-- $\mathbf{KV Packet}$ -->
    <g transform="translate(-142.485156 397.602188) scale(0.1 -0.1)">
     <defs>
      <path id="DejaVuSans-Bold-4b" d="M 588 4666 
L 1791 4666 
L 1791 2963 
L 3525 4666 
L 4922 4666 
L 2675 2456 
L 5153 0 
L 3647 0 
L 1791 1838 
L 1791 0 
L 588 0 
L 588 4666 
z
" transform="scale(0.015625)"/>
      <path id="DejaVuSans-Bold-56" d="M 31 4666 
L 1241 4666 
L 2478 1222 
L 3713 4666 
L 4922 4666 
L 3194 0 
L 1759 0 
L 31 4666 
z
" transform="scale(0.015625)"/>
      <path id="DejaVuSans-Bold-50" d="M 588 4666 
L 2584 4666 
Q 3475 4666 3951 4270 
Q 4428 3875 4428 3144 
Q 4428 2409 3951 2014 
Q 3475 1619 2584 1619 
L 1791 1619 
L 1791 0 
L 588 0 
L 588 4666 
z
M 1791 3794 
L 1791 2491 
L 2456 2491 
Q 2806 2491 2997 2661 
Q 3188 2831 3188 3144 
Q 3188 3456 2997 3625 
Q 2806 3794 2456 3794 
L 1791 3794 
z
" transform="scale(0.015625)"/>
      <path id="DejaVuSans-Bold-61" d="M 2106 1575 
Q 1756 1575 1579 1456 
Q 1403 1338 1403 1106 
Q 1403 894 1545 773 
Q 1688 653 1941 653 
Q 2256 653 2472 879 
Q 2688 1106 2688 1447 
L 2688 1575 
L 2106 1575 
z
M 3816 1997 
L 3816 0 
L 2688 0 
L 2688 519 
Q 2463 200 2181 54 
Q 1900 -91 1497 -91 
Q 953 -91 614 226 
Q 275 544 275 1050 
Q 275 1666 698 1953 
Q 1122 2241 2028 2241 
L 2688 2241 
L 2688 2328 
Q 2688 2594 2478 2717 
Q 2269 2841 1825 2841 
Q 1466 2841 1156 2769 
Q 847 2697 581 2553 
L 581 3406 
Q 941 3494 1303 3539 
Q 1666 3584 2028 3584 
Q 2975 3584 3395 3211 
Q 3816 2838 3816 1997 
z
" transform="scale(0.015625)"/>
      <path id="DejaVuSans-Bold-63" d="M 3366 3391 
L 3366 2478 
Q 3138 2634 2908 2709 
Q 2678 2784 2431 2784 
Q 1963 2784 1702 2511 
Q 1441 2238 1441 1747 
Q 1441 1256 1702 982 
Q 1963 709 2431 709 
Q 2694 709 2930 787 
Q 3166 866 3366 1019 
L 3366 103 
Q 3103 6 2833 -42 
Q 2563 -91 2291 -91 
Q 1344 -91 809 395 
Q 275 881 275 1747 
Q 275 2613 809 3098 
Q 1344 3584 2291 3584 
Q 2566 3584 2833 3536 
Q 3100 3488 3366 3391 
z
" transform="scale(0.015625)"/>
      <path id="DejaVuSans-Bold-6b" d="M 538 4863 
L 1656 4863 
L 1656 2216 
L 2944 3500 
L 4244 3500 
L 2534 1894 
L 4378 0 
L 3022 0 
L 1656 1459 
L 1656 0 
L 538 0 
L 538 4863 
z
" transform="scale(0.015625)"/>
     </defs>
     <use xlink:href="#DejaVuSans-Bold-4b" transform="translate(0 0.015625)"/>
     <use xlink:href="#DejaVuSans-Bold-56" transform="translate(77.490234 0.015625)"/>
     <use xlink:href="#DejaVuSans-Bold-50" transform="translate(154.882812 0.015625)"/>
     <use xlink:href="#DejaVuSans-Bold-61" transform="translate(228.173828 0.015625)"/>
     <use xlink:href="#DejaVuSans-Bold-63" transform="translate(295.654297 0.015625)"/>
     <use xlink:href="#DejaVuSans-Bold-6b" transform="translate(354.931641 0.015625)"/>
     <use xlink:href="#DejaVuSans-Bold-65" transform="translate(421.435547 0.015625)"/>
     <use xlink:href="#DejaVuSans-Bold-74" transform="translate(489.257812 0.015625)"/>
    </g>
   </g>
   <g id="PathCollection_52">
    <g/>
   </g>
   <g id="text_28">
    <!-- Full Recompute -->
    <g transform="translate(-142.485156 412.280312) scale(0.1 -0.1)">
     <defs>
      <path id="DejaVuSans-75" d="M 544 1381 
L 544 3500 
L 1119 3500 
L 1119 1403 
Q 1119 906 1312 657 
Q 1506 409 1894 409 
Q 2359 409 2629 706 
Q 2900 1003 2900 1516 
L 2900 3500 
L 3475 3500 
L 3475 0 
L 2900 0 
L 2900 538 
Q 2691 219 2414 64 
Q 2138 -91 1772 -91 
Q 1169 -91 856 284 
Q 544 659 544 1381 
z
M 1991 3584 
L 1991 3584 
z
" transform="scale(0.015625)"/>
      <path id="DejaVuSans-6c" d="M 603 4863 
L 1178 4863 
L 1178 0 
L 603 0 
L 603 4863 
z
" transform="scale(0.015625)"/>
      <path id="DejaVuSans-52" d="M 2841 2188 
Q 3044 2119 3236 1894 
Q 3428 1669 3622 1275 
L 4263 0 
L 3584 0 
L 2988 1197 
Q 2756 1666 2539 1819 
Q 2322 1972 1947 1972 
L 1259 1972 
L 1259 0 
L 628 0 
L 628 4666 
L 2053 4666 
Q 2853 4666 3247 4331 
Q 3641 3997 3641 3322 
Q 3641 2881 3436 2590 
Q 3231 2300 2841 2188 
z
M 1259 4147 
L 1259 2491 
L 2053 2491 
Q 2509 2491 2742 2702 
Q 2975 2913 2975 3322 
Q 2975 3731 2742 3939 
Q 2509 4147 2053 4147 
L 1259 4147 
z
" transform="scale(0.015625)"/>
      <path id="DejaVuSans-6d" d="M 3328 2828 
Q 3544 3216 3844 3400 
Q 4144 3584 4550 3584 
Q 5097 3584 5394 3201 
Q 5691 2819 5691 2113 
L 5691 0 
L 5113 0 
L 5113 2094 
Q 5113 2597 4934 2840 
Q 4756 3084 4391 3084 
Q 3944 3084 3684 2787 
Q 3425 2491 3425 1978 
L 3425 0 
L 2847 0 
L 2847 2094 
Q 2847 2600 2669 2842 
Q 2491 3084 2119 3084 
Q 1678 3084 1418 2786 
Q 1159 2488 1159 1978 
L 1159 0 
L 581 0 
L 581 3500 
L 1159 3500 
L 1159 2956 
Q 1356 3278 1631 3431 
Q 1906 3584 2284 3584 
Q 2666 3584 2933 3390 
Q 3200 3197 3328 2828 
z
" transform="scale(0.015625)"/>
      <path id="DejaVuSans-74" d="M 1172 4494 
L 1172 3500 
L 2356 3500 
L 2356 3053 
L 1172 3053 
L 1172 1153 
Q 1172 725 1289 603 
Q 1406 481 1766 481 
L 2356 481 
L 2356 0 
L 1766 0 
Q 1100 0 847 248 
Q 594 497 594 1153 
L 594 3053 
L 172 3053 
L 172 3500 
L 594 3500 
L 594 4494 
L 1172 4494 
z
" transform="scale(0.015625)"/>
     </defs>
     <use xlink:href="#DejaVuSans-46"/>
     <use xlink:href="#DejaVuSans-75" transform="translate(52.019531 0)"/>
     <use xlink:href="#DejaVuSans-6c" transform="translate(115.398438 0)"/>
     <use xlink:href="#DejaVuSans-6c" transform="translate(143.181641 0)"/>
     <use xlink:href="#DejaVuSans-20" transform="translate(170.964844 0)"/>
     <use xlink:href="#DejaVuSans-52" transform="translate(202.751953 0)"/>
     <use xlink:href="#DejaVuSans-65" transform="translate(267.734375 0)"/>
     <use xlink:href="#DejaVuSans-63" transform="translate(329.257812 0)"/>
     <use xlink:href="#DejaVuSans-6f" transform="translate(384.238281 0)"/>
     <use xlink:href="#DejaVuSans-6d" transform="translate(445.419922 0)"/>
     <use xlink:href="#DejaVuSans-70" transform="translate(542.832031 0)"/>
     <use xlink:href="#DejaVuSans-75" transform="translate(606.308594 0)"/>
     <use xlink:href="#DejaVuSans-74" transform="translate(669.6875 0)"/>
     <use xlink:href="#DejaVuSans-65" transform="translate(708.896484 0)"/>
    </g>
   </g>
   <g id="PathCollection_53">
    <g/>
   </g>
   <g id="text_29">
    <!-- No Recompute -->
    <g transform="translate(-17.442969 397.602188) scale(0.1 -0.1)">
     <defs>
      <path id="DejaVuSans-4e" d="M 628 4666 
L 1478 4666 
L 3547 763 
L 3547 4666 
L 4159 4666 
L 4159 0 
L 3309 0 
L 1241 3903 
L 1241 0 
L 628 0 
L 628 4666 
z
" transform="scale(0.015625)"/>
     </defs>
     <use xlink:href="#DejaVuSans-4e"/>
     <use xlink:href="#DejaVuSans-6f" transform="translate(74.804688 0)"/>
     <use xlink:href="#DejaVuSans-20" transform="translate(135.986328 0)"/>
     <use xlink:href="#DejaVuSans-52" transform="translate(167.773438 0)"/>
     <use xlink:href="#DejaVuSans-65" transform="translate(232.755859 0)"/>
     <use xlink:href="#DejaVuSans-63" transform="translate(294.279297 0)"/>
     <use xlink:href="#DejaVuSans-6f" transform="translate(349.259766 0)"/>
     <use xlink:href="#DejaVuSans-6d" transform="translate(410.441406 0)"/>
     <use xlink:href="#DejaVuSans-70" transform="translate(507.853516 0)"/>
     <use xlink:href="#DejaVuSans-75" transform="translate(571.330078 0)"/>
     <use xlink:href="#DejaVuSans-74" transform="translate(634.708984 0)"/>
     <use xlink:href="#DejaVuSans-65" transform="translate(673.917969 0)"/>
    </g>
   </g>
   <g id="PathCollection_54">
    <g/>
   </g>
   <g id="text_30">
    <!-- No Cache -->
    <g transform="translate(-17.442969 412.280312) scale(0.1 -0.1)">
     <defs>
      <path id="DejaVuSans-43" d="M 4122 4306 
L 4122 3641 
Q 3803 3938 3442 4084 
Q 3081 4231 2675 4231 
Q 1875 4231 1450 3742 
Q 1025 3253 1025 2328 
Q 1025 1406 1450 917 
Q 1875 428 2675 428 
Q 3081 428 3442 575 
Q 3803 722 4122 1019 
L 4122 359 
Q 3791 134 3420 21 
Q 3050 -91 2638 -91 
Q 1578 -91 968 557 
Q 359 1206 359 2328 
Q 359 3453 968 4101 
Q 1578 4750 2638 4750 
Q 3056 4750 3426 4639 
Q 3797 4528 4122 4306 
z
" transform="scale(0.015625)"/>
     </defs>
     <use xlink:href="#DejaVuSans-4e"/>
     <use xlink:href="#DejaVuSans-6f" transform="translate(74.804688 0)"/>
     <use xlink:href="#DejaVuSans-20" transform="translate(135.986328 0)"/>
     <use xlink:href="#DejaVuSans-43" transform="translate(167.773438 0)"/>
     <use xlink:href="#DejaVuSans-61" transform="translate(237.597656 0)"/>
     <use xlink:href="#DejaVuSans-63" transform="translate(298.876953 0)"/>
     <use xlink:href="#DejaVuSans-68" transform="translate(353.857422 0)"/>
     <use xlink:href="#DejaVuSans-65" transform="translate(417.236328 0)"/>
    </g>
   </g>
   <g id="PathCollection_55">
    <g>
     <use xlink:href="#m1988446b2a" x="86.103906" y="394.977188" style="fill: #ffa500; fill-opacity: 0.7; stroke: #ffa500; stroke-opacity: 0.7"/>
    </g>
   </g>
   <g id="text_31">
    <!-- Random Recompute -->
    <g transform="translate(104.103906 397.602188) scale(0.1 -0.1)">
     <defs>
      <path id="DejaVuSans-6e" d="M 3513 2113 
L 3513 0 
L 2938 0 
L 2938 2094 
Q 2938 2591 2744 2837 
Q 2550 3084 2163 3084 
Q 1697 3084 1428 2787 
Q 1159 2491 1159 1978 
L 1159 0 
L 581 0 
L 581 3500 
L 1159 3500 
L 1159 2956 
Q 1366 3272 1645 3428 
Q 1925 3584 2291 3584 
Q 2894 3584 3203 3211 
Q 3513 2838 3513 2113 
z
" transform="scale(0.015625)"/>
      <path id="DejaVuSans-64" d="M 2906 2969 
L 2906 4863 
L 3481 4863 
L 3481 0 
L 2906 0 
L 2906 525 
Q 2725 213 2448 61 
Q 2172 -91 1784 -91 
Q 1150 -91 751 415 
Q 353 922 353 1747 
Q 353 2572 751 3078 
Q 1150 3584 1784 3584 
Q 2172 3584 2448 3432 
Q 2725 3281 2906 2969 
z
M 947 1747 
Q 947 1113 1208 752 
Q 1469 391 1925 391 
Q 2381 391 2643 752 
Q 2906 1113 2906 1747 
Q 2906 2381 2643 2742 
Q 2381 3103 1925 3103 
Q 1469 3103 1208 2742 
Q 947 2381 947 1747 
z
" transform="scale(0.015625)"/>
     </defs>
     <use xlink:href="#DejaVuSans-52"/>
     <use xlink:href="#DejaVuSans-61" transform="translate(67.232422 0)"/>
     <use xlink:href="#DejaVuSans-6e" transform="translate(128.511719 0)"/>
     <use xlink:href="#DejaVuSans-64" transform="translate(191.890625 0)"/>
     <use xlink:href="#DejaVuSans-6f" transform="translate(255.367188 0)"/>
     <use xlink:href="#DejaVuSans-6d" transform="translate(316.548828 0)"/>
     <use xlink:href="#DejaVuSans-20" transform="translate(413.960938 0)"/>
     <use xlink:href="#DejaVuSans-52" transform="translate(445.748047 0)"/>
     <use xlink:href="#DejaVuSans-65" transform="translate(510.730469 0)"/>
     <use xlink:href="#DejaVuSans-63" transform="translate(572.253906 0)"/>
     <use xlink:href="#DejaVuSans-6f" transform="translate(627.234375 0)"/>
     <use xlink:href="#DejaVuSans-6d" transform="translate(688.416016 0)"/>
     <use xlink:href="#DejaVuSans-70" transform="translate(785.828125 0)"/>
     <use xlink:href="#DejaVuSans-75" transform="translate(849.304688 0)"/>
     <use xlink:href="#DejaVuSans-74" transform="translate(912.683594 0)"/>
     <use xlink:href="#DejaVuSans-65" transform="translate(951.892578 0)"/>
    </g>
   </g>
   <g id="PathCollection_56">
    <g>
     <use xlink:href="#mc31ceaf4d4" x="86.103906" y="409.655312" style="fill: #a52a2a; fill-opacity: 0.7; stroke: #a52a2a; stroke-opacity: 0.7"/>
    </g>
   </g>
   <g id="text_32">
    <!-- A3 -->
    <g transform="translate(104.103906 412.280312) scale(0.1 -0.1)">
     <defs>
      <path id="DejaVuSans-41" d="M 2188 4044 
L 1331 1722 
L 3047 1722 
L 2188 4044 
z
M 1831 4666 
L 2547 4666 
L 4325 0 
L 3669 0 
L 3244 1197 
L 1141 1197 
L 716 0 
L 50 0 
L 1831 4666 
z
" transform="scale(0.015625)"/>
     </defs>
     <use xlink:href="#DejaVuSans-41"/>
     <use xlink:href="#DejaVuSans-33" transform="translate(68.408203 0)"/>
    </g>
   </g>
   <g id="PathCollection_57">
    <g>
     <use xlink:href="#mefdc5df274" x="235.447656" y="394.977188" style="fill: #ffd700; fill-opacity: 0.7; stroke: #ffd700; stroke-opacity: 0.7"/>
    </g>
   </g>
   <g id="text_33">
    <!-- SAM-KV -->
    <g transform="translate(253.447656 397.602188) scale(0.1 -0.1)">
     <defs>
      <path id="DejaVuSans-4d" d="M 628 4666 
L 1569 4666 
L 2759 1491 
L 3956 4666 
L 4897 4666 
L 4897 0 
L 4281 0 
L 4281 4097 
L 3078 897 
L 2444 897 
L 1241 4097 
L 1241 0 
L 628 0 
L 628 4666 
z
" transform="scale(0.015625)"/>
      <path id="DejaVuSans-2d" d="M 313 2009 
L 1997 2009 
L 1997 1497 
L 313 1497 
L 313 2009 
z
" transform="scale(0.015625)"/>
      <path id="DejaVuSans-4b" d="M 628 4666 
L 1259 4666 
L 1259 2694 
L 3353 4666 
L 4166 4666 
L 1850 2491 
L 4331 0 
L 3500 0 
L 1259 2247 
L 1259 0 
L 628 0 
L 628 4666 
z
" transform="scale(0.015625)"/>
      <path id="DejaVuSans-56" d="M 1831 0 
L 50 4666 
L 709 4666 
L 2188 738 
L 3669 4666 
L 4325 4666 
L 2547 0 
L 1831 0 
z
" transform="scale(0.015625)"/>
     </defs>
     <use xlink:href="#DejaVuSans-53"/>
     <use xlink:href="#DejaVuSans-41" transform="translate(65.351562 0)"/>
     <use xlink:href="#DejaVuSans-4d" transform="translate(133.759766 0)"/>
     <use xlink:href="#DejaVuSans-2d" transform="translate(220.039062 0)"/>
     <use xlink:href="#DejaVuSans-4b" transform="translate(256.123047 0)"/>
     <use xlink:href="#DejaVuSans-56" transform="translate(321.699219 0)"/>
    </g>
   </g>
   <g id="PathCollection_58">
    <g>
     <use xlink:href="#m717c3fbf3c" x="235.447656" y="409.655312" style="fill: #0000ff; fill-opacity: 0.7; stroke: #0000ff; stroke-opacity: 0.7"/>
    </g>
   </g>
   <g id="text_34">
    <!-- Cache Blend -->
    <g transform="translate(253.447656 412.280312) scale(0.1 -0.1)">
     <defs>
      <path id="DejaVuSans-42" d="M 1259 2228 
L 1259 519 
L 2272 519 
Q 2781 519 3026 730 
Q 3272 941 3272 1375 
Q 3272 1813 3026 2020 
Q 2781 2228 2272 2228 
L 1259 2228 
z
M 1259 4147 
L 1259 2741 
L 2194 2741 
Q 2656 2741 2882 2914 
Q 3109 3088 3109 3444 
Q 3109 3797 2882 3972 
Q 2656 4147 2194 4147 
L 1259 4147 
z
M 628 4666 
L 2241 4666 
Q 2963 4666 3353 4366 
Q 3744 4066 3744 3513 
Q 3744 3084 3544 2831 
Q 3344 2578 2956 2516 
Q 3422 2416 3680 2098 
Q 3938 1781 3938 1306 
Q 3938 681 3513 340 
Q 3088 0 2303 0 
L 628 0 
L 628 4666 
z
" transform="scale(0.015625)"/>
     </defs>
     <use xlink:href="#DejaVuSans-43"/>
     <use xlink:href="#DejaVuSans-61" transform="translate(69.824219 0)"/>
     <use xlink:href="#DejaVuSans-63" transform="translate(131.103516 0)"/>
     <use xlink:href="#DejaVuSans-68" transform="translate(186.083984 0)"/>
     <use xlink:href="#DejaVuSans-65" transform="translate(249.462891 0)"/>
     <use xlink:href="#DejaVuSans-20" transform="translate(310.986328 0)"/>
     <use xlink:href="#DejaVuSans-42" transform="translate(342.773438 0)"/>
     <use xlink:href="#DejaVuSans-6c" transform="translate(411.376953 0)"/>
     <use xlink:href="#DejaVuSans-65" transform="translate(439.160156 0)"/>
     <use xlink:href="#DejaVuSans-6e" transform="translate(500.683594 0)"/>
     <use xlink:href="#DejaVuSans-64" transform="translate(564.0625 0)"/>
    </g>
   </g>
   <g id="PathCollection_59">
    <g>
     <use xlink:href="#m4ae2e46c9b" x="346.203906" y="394.977188" style="fill: #008000; fill-opacity: 0.7; stroke: #008000; stroke-opacity: 0.7"/>
    </g>
   </g>
   <g id="text_35">
    <!-- EPIC -->
    <g transform="translate(364.203906 397.602188) scale(0.1 -0.1)">
     <defs>
      <path id="DejaVuSans-45" d="M 628 4666 
L 3578 4666 
L 3578 4134 
L 1259 4134 
L 1259 2753 
L 3481 2753 
L 3481 2222 
L 1259 2222 
L 1259 531 
L 3634 531 
L 3634 0 
L 628 0 
L 628 4666 
z
" transform="scale(0.015625)"/>
      <path id="DejaVuSans-49" d="M 628 4666 
L 1259 4666 
L 1259 0 
L 628 0 
L 628 4666 
z
" transform="scale(0.015625)"/>
     </defs>
     <use xlink:href="#DejaVuSans-45"/>
     <use xlink:href="#DejaVuSans-50" transform="translate(63.183594 0)"/>
     <use xlink:href="#DejaVuSans-49" transform="translate(123.486328 0)"/>
     <use xlink:href="#DejaVuSans-43" transform="translate(152.978516 0)"/>
    </g>
   </g>
  </g>
 </g>
 <defs>
  <clipPath id="paa83579767">
   <rect x="17.28" y="36.6" width="187.92" height="132.007845"/>
  </clipPath>
  <clipPath id="p3f25ebff10">
   <rect x="17.28" y="204.952155" width="187.92" height="132.007845"/>
  </clipPath>
 </defs>
</svg>
